HIERARCHY
ROOT Hips
{
	OFFSET 0.000000 83.214638 0.000000
	CHANNELS 6 Xposition Yposition Zposition Xrotation Yrotation Zrotation
	JOINT Pelvis
	{
		OFFSET 0.000000 0.000000 0.000000
		CHANNELS 3 Xrotation Yrotation Zrotation
		JOINT LeftUpLeg
		{
			OFFSET 8.479700 -4.795502 -0.379100
			CHANNELS 3 Xrotation Yrotation Zrotation
			JOINT LeftLeg
			{
				OFFSET 0.024144 -32.555107 0.112900
				CHANNELS 3 Xrotation Yrotation Zrotation
				JOINT LeftFoot
				{
					OFFSET -0.024144 -32.638630 -3.012600
					CHANNELS 3 Xrotation Yrotation Zrotation
					JOINT LeftToeBase
					{
						OFFSET 0.970200 -13.225400 11.864200
						CHANNELS 3 Xrotation Yrotation Zrotation
						End Site
						{
							OFFSET 0.000000 12.319262 0.000000
						}
					}
					JOINT LFootTongue
					{
						OFFSET 1.142400 -1.059800 6.665200
						CHANNELS 3 Xrotation Yrotation Zrotation
						End Site
						{
							OFFSET 0.000000 12.319262 0.000000
						}
					}
				}
				JOINT LeftPantLeg
				{
					OFFSET 0.918482 -16.533964 -2.284700
					CHANNELS 3 Xrotation Yrotation Zrotation
					End Site
					{
						OFFSET 0.350399 24.744368 0.000000
					}
				}
			}
		}
		JOINT RightUpLeg
		{
			OFFSET -8.479700 -4.795502 -0.379100
			CHANNELS 3 Xrotation Yrotation Zrotation
			JOINT RightLeg
			{
				OFFSET -0.023144 -32.555092 0.112900
				CHANNELS 3 Xrotation Yrotation Zrotation
				JOINT RightFoot
				{
					OFFSET 0.023144 -32.638641 -3.012700
					CHANNELS 3 Xrotation Yrotation Zrotation
					JOINT RightToeBase
					{
						OFFSET -0.970200 -13.225400 11.864200
						CHANNELS 3 Xrotation Yrotation Zrotation
						End Site
						{
							OFFSET 0.000000 12.319244 0.000000
						}
					}
					JOINT RFootTongue
					{
						OFFSET -1.142200 -1.059800 6.665200
						CHANNELS 3 Xrotation Yrotation Zrotation
						End Site
						{
							OFFSET 0.000000 12.319243 0.000000
						}
					}
				}
				JOINT RightPantLeg
				{
					OFFSET -0.919482 -16.533978 -2.284800
					CHANNELS 3 Xrotation Yrotation Zrotation
					End Site
					{
						OFFSET -0.350400 24.744419 0.000000
					}
				}
			}
		}
	}
	JOINT Spine
	{
		OFFSET 0.000000 7.722000 1.166200
		CHANNELS 3 Xrotation Yrotation Zrotation
		JOINT Spine1
		{
			OFFSET 0.000000 12.024101 0.248800
			CHANNELS 3 Xrotation Yrotation Zrotation
			JOINT Spine2
			{
				OFFSET 0.000000 11.502998 -0.491200
				CHANNELS 3 Xrotation Yrotation Zrotation
				JOINT Neck
				{
					OFFSET 0.000000 18.430702 -3.123100
					CHANNELS 3 Xrotation Yrotation Zrotation
					JOINT Head
					{
						OFFSET 0.000000 9.051102 1.034000
						CHANNELS 3 Xrotation Yrotation Zrotation
						JOINT HairB
						{
							OFFSET 0.208400 24.786102 24.822300
							CHANNELS 3 Xrotation Yrotation Zrotation
							End Site
							{
								OFFSET 0.000000 32.263779 0.000000
							}
						}
						JOINT HairA
						{
							OFFSET -7.081100 24.428299 23.196600
							CHANNELS 3 Xrotation Yrotation Zrotation
							End Site
							{
								OFFSET 0.000000 32.263779 0.000000
							}
						}
						JOINT Hat
						{
							OFFSET 16.728800 15.048294 -15.439601
							CHANNELS 3 Xrotation Yrotation Zrotation
							End Site
							{
								OFFSET 0.000000 32.263779 0.000000
							}
						}
					}
				}
				JOINT LeftShoulder
				{
					OFFSET 6.197800 13.665199 -4.064700
					CHANNELS 3 Xrotation Yrotation Zrotation
					JOINT LeftArm
					{
						OFFSET 7.778100 -0.187103 -1.709300
						CHANNELS 3 Xrotation Yrotation Zrotation
						JOINT LeftForeArm
						{
							OFFSET 22.049376 0.000000 0.000000
							CHANNELS 3 Xrotation Yrotation Zrotation
							JOINT LeftHand
							{
								OFFSET 23.009392 0.000000 0.000000
								CHANNELS 3 Xrotation Yrotation Zrotation
								JOINT LeftHandThumb1
								{
									OFFSET 3.507191 -2.063065 3.133727
									CHANNELS 3 Xrotation Yrotation Zrotation
									JOINT LeftHandThumb2
									{
										OFFSET 3.101337 -1.790558 1.790558
										CHANNELS 3 Xrotation Yrotation Zrotation
										JOINT LeftHandThumb3
										{
											OFFSET 3.058640 -1.765907 1.765906
											CHANNELS 3 Xrotation Yrotation Zrotation
											End Site
											{
												OFFSET -0.415260 3.926476 -0.049563
											}
										}
									}
								}
								JOINT LeftHandIndex1
								{
									OFFSET 11.334419 -0.901459 3.706815
									CHANNELS 3 Xrotation Yrotation Zrotation
									JOINT LeftHandIndex2
									{
										OFFSET 3.283112 0.000000 0.000000
										CHANNELS 3 Xrotation Yrotation Zrotation
										JOINT LeftHandIndex3
										{
											OFFSET 3.323853 0.000000 0.000000
											CHANNELS 3 Xrotation Yrotation Zrotation
											End Site
											{
												OFFSET -1.135597 3.097809 0.402452
											}
										}
									}
								}
								JOINT LeftHandMiddle1
								{
									OFFSET 11.335861 0.000000 0.000000
									CHANNELS 3 Xrotation Yrotation Zrotation
									JOINT LeftHandMiddle2
									{
										OFFSET 3.410492 0.000000 0.000000
										CHANNELS 3 Xrotation Yrotation Zrotation
										JOINT LeftHandMiddle3
										{
											OFFSET 3.312172 0.000000 0.000000
											CHANNELS 3 Xrotation Yrotation Zrotation
											End Site
											{
												OFFSET -1.150200 3.080154 0.400270
											}
										}
									}
								}
								JOINT LeftHandRing1
								{
									OFFSET 11.514786 -0.013176 -3.003090
									CHANNELS 3 Xrotation Yrotation Zrotation
									JOINT LeftHandRing2
									{
										OFFSET 3.053307 0.000000 0.000000
										CHANNELS 3 Xrotation Yrotation Zrotation
										JOINT LeftHandRing3
										{
											OFFSET 3.295807 0.000000 0.000000
											CHANNELS 3 Xrotation Yrotation Zrotation
											End Site
											{
												OFFSET -1.281006 3.013344 0.375733
											}
										}
									}
								}
								JOINT LeftHandPinky1
								{
									OFFSET 10.518692 -0.960396 -5.730441
									CHANNELS 3 Xrotation Yrotation Zrotation
									JOINT LeftHandPinky2
									{
										OFFSET 2.861649 0.000000 0.000000
										CHANNELS 3 Xrotation Yrotation Zrotation
										JOINT LeftHandPinky3
										{
											OFFSET 2.863380 0.000000 0.000000
											CHANNELS 3 Xrotation Yrotation Zrotation
											End Site
											{
												OFFSET -0.843597 2.711159 0.369971
											}
										}
									}
								}
							}
							JOINT LSleeve
							{
								OFFSET 6.676277 -0.344902 -1.011730
								CHANNELS 3 Xrotation Yrotation Zrotation
								End Site
								{
									OFFSET 0.000000 14.885353 0.000000
								}
							}
						}
					}
				}
				JOINT RightShoulder
				{
					OFFSET -6.197800 13.665199 -4.064700
					CHANNELS 3 Xrotation Yrotation Zrotation
					JOINT RightArm
					{
						OFFSET -7.778100 -0.187103 -1.709300
						CHANNELS 3 Xrotation Yrotation Zrotation
						JOINT RightForeArm
						{
							OFFSET -22.049376 0.000000 0.000000
							CHANNELS 3 Xrotation Yrotation Zrotation
							JOINT RightHand
							{
								OFFSET -23.009392 0.000000 0.000000
								CHANNELS 3 Xrotation Yrotation Zrotation
								JOINT RightHandThumb1
								{
									OFFSET -3.507191 -2.063065 3.133727
									CHANNELS 3 Xrotation Yrotation Zrotation
									JOINT RightHandThumb2
									{
										OFFSET -3.101337 -1.790558 1.790558
										CHANNELS 3 Xrotation Yrotation Zrotation
										JOINT RightHandThumb3
										{
											OFFSET -3.058640 -1.765907 1.765906
											CHANNELS 3 Xrotation Yrotation Zrotation
											End Site
											{
												OFFSET 0.415260 3.926476 -0.049563
											}
										}
									}
								}
								JOINT RightHandIndex1
								{
									OFFSET -11.334419 -0.901459 3.706815
									CHANNELS 3 Xrotation Yrotation Zrotation
									JOINT RightHandIndex2
									{
										OFFSET -3.283112 0.000000 0.000000
										CHANNELS 3 Xrotation Yrotation Zrotation
										JOINT RightHandIndex3
										{
											OFFSET -3.323853 0.000000 0.000000
											CHANNELS 3 Xrotation Yrotation Zrotation
											End Site
											{
												OFFSET 1.135597 3.097809 0.402452
											}
										}
									}
								}
								JOINT RightHandMiddle1
								{
									OFFSET -11.335861 0.000000 0.000000
									CHANNELS 3 Xrotation Yrotation Zrotation
									JOINT RightHandMiddle2
									{
										OFFSET -3.410492 0.000000 0.000000
										CHANNELS 3 Xrotation Yrotation Zrotation
										JOINT RightHandMiddle3
										{
											OFFSET -3.312172 0.000000 0.000000
											CHANNELS 3 Xrotation Yrotation Zrotation
											End Site
											{
												OFFSET 1.150200 3.080154 0.400270
											}
										}
									}
								}
								JOINT RightHandRing1
								{
									OFFSET -11.514786 -0.013176 -3.003090
									CHANNELS 3 Xrotation Yrotation Zrotation
									JOINT RightHandRing2
									{
										OFFSET -3.053307 0.000000 0.000000
										CHANNELS 3 Xrotation Yrotation Zrotation
										JOINT RightHandRing3
										{
											OFFSET -3.295807 0.000000 0.000000
											CHANNELS 3 Xrotation Yrotation Zrotation
											End Site
											{
												OFFSET 1.281006 3.013344 0.375733
											}
										}
									}
								}
								JOINT RightHandPinky1
								{
									OFFSET -10.518692 -0.960396 -5.730441
									CHANNELS 3 Xrotation Yrotation Zrotation
									JOINT RightHandPinky2
									{
										OFFSET -2.861649 0.000000 0.000000
										CHANNELS 3 Xrotation Yrotation Zrotation
										JOINT RightHandPinky3
										{
											OFFSET -2.863380 0.000000 0.000000
											CHANNELS 3 Xrotation Yrotation Zrotation
											End Site
											{
												OFFSET 0.843597 2.711159 0.369971
											}
										}
									}
								}
							}
							JOINT RSleeve
							{
								OFFSET -6.676277 -0.344902 -1.011730
								CHANNELS 3 Xrotation Yrotation Zrotation
								End Site
								{
									OFFSET 0.000000 14.885353 0.000000
								}
							}
						}
					}
				}
				JOINT Backpack
				{
					OFFSET 0.000000 -2.471497 36.677502
					CHANNELS 3 Xrotation Yrotation Zrotation
					End Site
					{
						OFFSET 0.000000 20.427315 0.000000
					}
				}
				JOINT Hood
				{
					OFFSET 0.000000 18.754097 -10.431000
					CHANNELS 3 Xrotation Yrotation Zrotation
					JOINT Hood1
					{
						OFFSET 0.000000 -5.011002 -7.685901
						CHANNELS 3 Xrotation Yrotation Zrotation
						End Site
						{
							OFFSET 0.000000 9.175140 0.000000
						}
					}
				}
				JOINT LHoodieString
				{
					OFFSET 5.250500 16.397697 3.089900
					CHANNELS 3 Xrotation Yrotation Zrotation
					JOINT LHoodieString1
					{
						OFFSET 0.257700 -6.364304 3.694600
						CHANNELS 3 Xrotation Yrotation Zrotation
						JOINT LHoodieString2
						{
							OFFSET 0.000000 -9.643799 2.679100
							CHANNELS 3 Xrotation Yrotation Zrotation
							End Site
							{
								OFFSET 0.000000 10.009018 0.000000
							}
						}
					}
				}
				JOINT RHoodieString
				{
					OFFSET -5.250500 16.397697 3.089900
					CHANNELS 3 Xrotation Yrotation Zrotation
					JOINT RHoodieString1
					{
						OFFSET -0.257700 -6.364304 3.694600
						CHANNELS 3 Xrotation Yrotation Zrotation
						JOINT RHoodieString2
						{
							OFFSET 0.000000 -9.643799 2.679100
							CHANNELS 3 Xrotation Yrotation Zrotation
							End Site
							{
								OFFSET 0.000000 10.009018 0.000000
							}
						}
					}
				}
			}
			JOINT LBackpack_Strap
			{
				OFFSET 15.223200 -7.719803 -6.610900
				CHANNELS 3 Xrotation Yrotation Zrotation
				End Site
				{
					OFFSET 0.000000 16.040596 0.000000
				}
			}
			JOINT RBackpack_Strap
			{
				OFFSET -15.223000 -7.719803 -6.610900
				CHANNELS 3 Xrotation Yrotation Zrotation
				End Site
				{
					OFFSET 0.000000 16.040596 0.000000
				}
			}
		}
	}
	JOINT BoyFacialAnim_Joint
	{
		OFFSET 1.000000 -82.208099 -1.550900
		CHANNELS 3 Xrotation Yrotation Zrotation
		End Site
		{
			OFFSET 0.000000 30.012791 0.000000
		}
	}
}
MOTION
Frames: 5
Frame Time: 0.033333
5.011800 75.872238 10.960491 -15.102863 -0.903890 -6.116200 -0.000000 0.000000 -0.000001 -15.509794 13.113954 13.844453 53.033393 -9.798067 7.821320 -24.350601 2.017013 -2.860451 -0.000000 -0.000000 0.000000 -0.000000 -0.000000 0.000000 0.000002 -0.000000 -0.000000 -8.721783 -21.752860 -16.523498 55.507738 1.674062 2.898511 -7.500263 -1.053931 10.635166 0.000001 -0.000001 0.000001 0.000001 -0.000001 0.000001 -0.000004 0.000001 0.000000 -9.518091 10.073113 -17.939589 2.111813 1.296247 -0.665272 2.073115 1.382783 -0.614628 6.253006 3.961750 -7.884395 16.350050 12.822947 -17.622277 -0.000000 0.000000 0.000001 -0.000000 0.000000 0.000001 -0.000000 0.000000 0.000001 0.760719 0.391158 -14.724986 -39.703333 -19.041816 -66.650810 -0.000006 -141.011632 0.000008 -46.082634 14.439308 -47.833034 -11.215794 -3.056888 8.620466 11.685209 30.715586 -2.834738 0.000003 0.000001 0.000001 1.586678 8.454441 -93.178581 5.418657 5.835121 -85.754418 -0.000003 0.000003 -0.000001 4.141408 8.188461 -89.614281 6.589358 5.804458 -97.261614 0.000001 0.000000 0.000000 8.033245 8.283484 -87.854606 6.695850 5.789983 -98.315710 -0.000000 0.000002 -0.000004 9.109171 7.631149 -102.766726 4.712182 5.739557 -78.756951 0.000001 0.000003 0.000002 0.000000 0.000001 0.000000 0.614647 5.949141 8.479009 -41.042118 19.831412 77.940299 0.000015 137.566990 -0.000020 -47.978264 -16.449209 60.373668 -23.190912 20.967103 -11.831529 24.023787 -46.556991 5.202596 0.000000 -0.000001 0.000003 -0.668919 -7.786311 98.410260 4.033409 -4.615309 82.294381 -0.000000 -0.000001 0.000002 0.361348 -6.889944 89.358047 5.345402 -4.606150 98.507386 0.000001 0.000002 0.000002 4.076139 -6.889696 83.306895 6.859064 -4.104767 118.242541 -0.000001 0.000002 0.000001 5.329984 -6.998906 85.266920 4.862159 -4.652690 92.525178 0.000001 0.000001 -0.000001 -0.000000 0.000001 -0.000003 -0.000003 -0.000000 -0.000000 -0.000003 -0.000000 -0.000000 -0.000003 -0.000000 -0.000000 -0.000003 -0.000000 -0.000000 -0.000003 -0.000000 -0.000000 -0.000001 0.000000 0.000000 -0.000003 -0.000000 -0.000000 -0.000003 -0.000000 -0.000000 -0.000001 0.000000 0.000000 0.000000 -0.000000 0.000002 0.000000 -0.000000 0.000002 -0.000000 0.000000 -0.000001 
5.448023 75.303528 10.574633 -15.737027 2.410803 -5.135332 -0.000001 -0.000000 0.000000 -16.638397 12.442880 12.885521 55.225337 -9.739289 8.217045 -24.622021 -0.524114 -2.208496 0.000000 -0.000000 -0.000000 0.000000 -0.000000 -0.000000 -0.000001 -0.000000 0.000000 -11.219039 -21.592007 -19.858507 58.994366 1.931270 3.130564 -2.310936 0.597013 12.955415 0.000001 -0.000000 0.000000 0.000001 -0.000000 0.000000 0.000002 0.000000 -0.000001 -7.821437 10.159635 -18.410657 2.141762 1.318958 -0.767458 2.103420 1.407225 -0.719179 8.022928 3.982373 -7.670843 20.545376 13.282619 -18.008649 -0.000000 0.000001 0.000002 -0.000000 0.000001 0.000002 -0.000000 0.000001 0.000002 0.630988 -2.658766 -15.433659 -38.800696 -16.452821 -64.612203 0.000012 -140.670246 0.000019 -45.263377 14.305450 -48.778704 -11.206013 -3.033806 8.604475 11.692937 30.736381 -2.841066 -0.000000 -0.000001 0.000002 1.522452 8.444095 -93.006850 5.422135 5.835392 -85.788733 -0.000003 -0.000002 -0.000004 4.125211 8.185281 -89.512436 6.616918 5.800898 -97.534022 0.000001 -0.000000 0.000000 8.040308 8.287974 -87.751040 6.712441 5.787539 -98.480256 0.000002 0.000000 0.000001 9.104243 7.635656 -102.668501 4.709956 5.739116 -78.734514 0.000001 -0.000000 0.000001 -0.000000 -0.000001 -0.000000 0.624901 8.011547 8.765042 -39.535918 18.164220 75.829573 0.000031 138.275855 -0.000043 -49.565945 -18.020220 59.663792 -23.090045 20.945106 -11.901242 24.002980 -46.531883 5.191504 -0.000003 0.000001 0.000001 -0.716915 -7.742581 97.938533 4.032764 -4.615213 82.286397 -0.000002 0.000002 0.000000 0.427503 -6.867808 89.048953 5.343879 -4.606371 98.488568 -0.000001 0.000000 -0.000000 4.069106 -6.888556 83.100425 6.868835 -4.099522 118.379158 0.000002 0.000000 0.000004 5.485034 -7.015117 85.103522 4.870724 -4.652315 92.630923 -0.000003 -0.000000 0.000000 -0.000000 -0.000001 -0.000002 -0.000000 -0.000001 0.000000 -0.000000 -0.000001 0.000000 -0.000000 -0.000001 0.000000 -0.000000 -0.000001 0.000000 -0.000000 -0.000001 0.000000 0.000001 -0.000001 0.000000 -0.000000 -0.000001 0.000000 -0.000000 -0.000001 0.000000 0.000001 -0.000001 0.000000 -0.000001 0.000000 -0.000000 -0.000001 0.000000 -0.000000 -0.000001 -0.000000 0.000000 
5.930585 74.793564 10.302357 -16.377822 5.127986 -3.934285 -0.000002 0.000000 -0.000000 -17.222269 11.898978 11.522576 56.936614 -9.704633 8.369501 -24.826780 -2.312024 -1.433812 -0.000000 -0.000001 -0.000000 -0.000000 -0.000001 -0.000000 -0.000001 -0.000000 0.000000 -12.133718 -20.906610 -21.465843 60.972183 1.861870 2.596726 0.133632 1.088890 14.403865 0.000001 0.000003 -0.000002 0.000001 0.000003 -0.000002 0.000004 -0.000001 -0.000001 -6.473496 10.534758 -18.490183 2.156731 1.374133 -0.926277 2.119518 1.463145 -0.878063 9.285447 3.933654 -7.256770 23.588103 13.408624 -17.361470 -0.000000 0.000000 0.000004 -0.000000 0.000000 0.000004 -0.000000 0.000000 0.000004 0.447258 -6.275186 -15.476206 -36.688306 -13.028882 -62.813855 0.000016 -140.466460 0.000019 -44.466396 13.753102 -49.496188 -11.166925 -2.917928 8.488241 11.751027 30.867192 -2.882512 0.000002 -0.000001 0.000004 1.430986 8.433594 -92.819791 5.425434 5.835625 -85.821061 0.000002 -0.000002 -0.000002 4.110640 8.184821 -89.500620 6.630832 5.799051 -97.671698 0.000001 -0.000001 0.000000 8.065359 8.290894 -87.705018 6.732549 5.784518 -98.679711 -0.000001 -0.000002 0.000001 9.097437 7.643036 -102.499194 4.696908 5.736508 -78.604139 0.000001 0.000000 0.000005 -0.000000 0.000000 0.000002 0.694970 9.704908 7.736393 -38.700791 15.375688 74.942345 0.000009 139.386676 0.000007 -50.043577 -19.060416 60.117078 -23.070883 20.910991 -11.855119 23.888407 -46.393312 5.130630 0.000004 0.000003 -0.000002 -0.785301 -7.699835 97.454505 4.032353 -4.615182 82.281390 -0.000004 0.000001 0.000005 0.523127 -6.854846 88.849450 5.341757 -4.606684 98.461985 0.000001 0.000003 0.000002 4.085330 -6.890391 83.003246 6.874124 -4.096676 118.452979 0.000004 0.000000 0.000002 5.590152 -7.026597 84.993146 4.872285 -4.652243 92.650020 -0.000005 -0.000001 -0.000002 -0.000002 0.000000 -0.000002 -0.000000 -0.000000 -0.000000 -0.000000 -0.000000 -0.000000 -0.000000 -0.000000 -0.000000 -0.000000 -0.000000 -0.000000 -0.000000 -0.000000 -0.000000 -0.000003 -0.000000 -0.000001 -0.000000 -0.000000 -0.000000 -0.000000 -0.000000 -0.000000 -0.000003 -0.000000 -0.000001 0.000002 0.000000 0.000001 0.000002 0.000000 0.000001 -0.000002 0.000000 -0.000000 
6.491855 74.468437 10.206657 -16.968244 6.748096 -2.555841 0.000001 -0.000000 0.000000 -16.962392 11.687609 9.828612 57.730487 -9.709116 8.130705 -24.910842 -3.171646 -0.552455 0.000000 -0.000000 -0.000000 0.000000 -0.000000 -0.000000 -0.000000 -0.000000 -0.000000 -11.910138 -20.136029 -21.577507 61.775311 1.498505 1.360024 -0.078052 -0.684843 14.908158 0.000001 0.000003 -0.000002 0.000001 0.000003 -0.000002 0.000001 -0.000001 0.000000 -5.796779 11.315581 -18.414219 2.232800 1.475127 -1.079375 2.195567 1.567481 -1.026874 9.680866 3.897817 -6.851408 24.956897 13.386279 -16.286280 0.000001 -0.000001 -0.000000 0.000001 -0.000001 -0.000000 0.000001 -0.000001 -0.000000 0.299533 -9.323252 -15.318545 -34.033197 -10.674156 -61.987136 0.000033 -140.456693 0.000032 -43.614432 12.862881 -50.026498 -11.119226 -2.856869 8.521406 11.822143 31.030086 -2.934118 -0.000002 0.000000 -0.000001 1.384499 8.425607 -92.695660 5.427238 5.835753 -85.838853 0.000001 0.000001 -0.000002 4.104962 8.181959 -89.408638 6.646877 5.796877 -97.830575 0.000001 -0.000001 0.000002 8.057154 8.293333 -87.637426 6.755882 5.780919 -98.911350 0.000001 -0.000002 -0.000008 9.077633 7.650234 -102.415879 4.701343 5.737404 -78.648542 0.000001 -0.000001 0.000003 0.000001 -0.000000 -0.000000 0.802002 10.433213 6.195054 -37.839784 13.506185 75.665027 0.000032 139.970630 -0.000040 -49.373351 -18.857536 60.997503 -23.107894 20.872968 -11.737524 23.869858 -46.376694 5.121277 0.000004 0.000001 -0.000001 -0.859933 -7.687947 97.253151 4.032162 -4.615147 82.279177 -0.000003 0.000001 0.000002 0.535152 -6.855130 88.850666 5.339037 -4.607095 98.428224 0.000004 -0.000001 0.000001 4.107501 -6.893118 83.047778 6.874355 -4.096538 118.456285 0.000002 0.000001 0.000001 5.560769 -7.025046 84.946749 4.885021 -4.651616 92.807313 -0.000002 -0.000001 -0.000003 -0.000002 -0.000002 0.000002 0.000001 -0.000002 0.000002 0.000001 -0.000002 0.000002 0.000001 -0.000002 0.000002 0.000001 -0.000002 0.000002 0.000001 -0.000002 0.000002 0.000001 -0.000002 0.000001 0.000001 -0.000002 0.000002 0.000001 -0.000002 0.000002 0.000001 -0.000002 0.000001 0.000003 0.000001 -0.000001 0.000003 0.000001 -0.000001 0.000001 -0.000000 0.000000 
7.158604 74.425842 10.290892 -17.557594 6.977468 -1.168323 0.000000 -0.000000 -0.000000 -15.628591 12.080089 7.914133 57.347245 -9.747286 7.706771 -24.850376 -3.163399 0.335294 -0.000000 0.000000 -0.000000 -0.000000 0.000000 -0.000000 -0.000002 0.000000 -0.000000 -10.954168 -19.196590 -21.519069 61.533229 -0.594509 -0.253305 -1.335761 -2.912162 17.469402 0.000001 0.000001 -0.000002 0.000001 0.000001 -0.000002 0.000001 0.000000 -0.000001 -5.921367 12.253259 -18.012964 2.406347 1.589866 -1.154855 2.367980 1.688631 -1.093863 9.358258 3.957287 -6.561975 24.671536 13.824454 -15.790899 0.000001 -0.000002 0.000002 0.000001 -0.000002 0.000002 0.000001 -0.000002 0.000002 0.238963 -10.725975 -15.170246 -31.285876 -10.635492 -62.351506 -0.000007 -140.688619 0.000008 -42.863354 12.213241 -50.316180 -11.199198 -3.084324 8.737099 11.798610 30.975427 -2.916827 0.000001 -0.000000 0.000000 1.350695 8.425289 -92.671542 5.422364 5.835402 -85.790939 -0.000002 -0.000002 -0.000004 4.082061 8.178214 -89.293296 6.666777 5.794126 -98.027606 -0.000001 -0.000001 0.000002 8.019083 8.296043 -87.531442 6.782398 5.776730 -99.174709 -0.000000 0.000001 -0.000004 9.045709 7.655908 -102.453425 4.702996 5.737727 -78.664983 0.000001 0.000002 0.000002 0.000000 -0.000000 0.000001 0.919332 10.553813 4.376612 -36.377786 12.965416 77.815751 0.000028 139.978539 -0.000041 -48.207485 -17.932843 61.648003 -23.153409 20.840427 -11.606431 23.904050 -46.421784 5.140667 -0.000002 0.000004 -0.000003 -0.909830 -7.675202 97.077021 4.032046 -4.615120 82.277422 0.000001 -0.000004 0.000003 0.508764 -6.856301 88.873308 5.338369 -4.607193 98.419761 0.000002 -0.000001 0.000001 4.105322 -6.892805 82.963296 6.879109 -4.093969 118.522729 -0.000001 -0.000000 0.000000 5.580688 -7.027910 84.898186 4.890645 -4.651355 92.876263 -0.000002 -0.000004 -0.000000 -0.000000 -0.000001 -0.000001 -0.000002 0.000001 0.000001 -0.000002 0.000001 0.000001 -0.000002 0.000001 0.000001 -0.000002 0.000001 0.000001 -0.000002 0.000001 -0.000000 -0.000002 -0.000001 -0.000001 -0.000002 0.000001 0.000001 -0.000002 0.000001 -0.000000 -0.000002 -0.000001 -0.000001 0.000001 0.000001 -0.000001 0.000001 0.000001 -0.000001 0.000000 -0.000000 -0.000000 
